# xmcd
#
# Track frame offsets:
#	150
#	17902
#	32545
#	46147
#	60347
#	75787
#	91425
#	107665
#	122672
#	141130
#	154532
#	169152
#	182267
#	208352
#	233417
#	251145
#	271332
#	291805
#
# Disc length: 4020 seconds
#
# Revision: 1
# Processed by: cddbd v1.5.1PL0 Copyright (c) Steve Scherf et al.
# Submitted via: CDex 1.50Beta5
#
DISCID=e30fb212
DTITLE=さまざまなアーティスト - naturally
DYEAR=1900
DGENRE=Pop
TTITLE0=Vanessa Carlton/A Thousand Miles
TTITLE1=Shania Twain/You're Still The One
TTITLE2=Lisa Loeb&Nine Stories/Stay
TTITLE3=Sheryl Crow/Storong Enough
TTITLE4=Sixpence None The Richer/Kiss Me
TTITLE5=India Arie/Little Things
TTITLE6=The Style Council/My Ever Changing Moods
TTITLE7=The Cardigans/Carnival
TTITLE8=Swing Out Sister/Am I The Same Girl
TTITLE9=Jane Brikin/Yesterday Yes A Day
TTITLE10=Elton John/Goodbye Yerrow Brick Road
TTITLE11=Mary J.Blige/Natural Woman
TTITLE12=Chante Moore/Free/Sail On
TTITLE13=Incognito/Still A Friend Of Mine
TTITLE14=Anna Caram/Close To You
TTITLE15=Morelenbaum/Sakamoto/O Grand Amor
TTITLE16=Monday Michiru/How Deep Is Your Love
TTITLE17=Suzanne Vega/Tom's Diner
EXTD=
EXTT0=
EXTT1=
EXTT2=
EXTT3=
EXTT4=
EXTT5=
EXTT6=
EXTT7=
EXTT8=
EXTT9=
EXTT10=
EXTT11=
EXTT12=
EXTT13=
EXTT14=
EXTT15=
EXTT16=
EXTT17=
PLAYORDER=
